<svg width="40" height="40" viewBox="0 0 40 40" fill="none" xmlns="http://www.w3.org/2000/svg">
<g clip-path="url(#clip0_2220_2110)">
<rect width="40" height="40" rx="20" fill="#C5E4FE"/>
<path d="M15.9145 7.14111H14.2051V8.85054H15.9145V7.14111Z" fill="#754C24"/>
<path d="M17.6254 7.14111H15.916V8.85054H17.6254V7.14111Z" fill="#754C24"/>
<path d="M19.1445 7.14111H17.625V8.85054H19.1445V7.14111Z" fill="#754C24"/>
<path d="M20.854 7.14111H19.1445V8.85054H20.854V7.14111Z" fill="#754C24"/>
<path d="M22.373 7.14111H20.8535V8.85054H22.373V7.14111Z" fill="#754C24"/>
<path d="M24.0825 7.14111H22.373V8.85054H24.0825V7.14111Z" fill="#754C24"/>
<path d="M14.2055 8.85059H12.4961V10.3701H14.2055V8.85059Z" fill="#754C24"/>
<path d="M15.9145 8.85059H14.2051V10.3701H15.9145V8.85059Z" fill="#754C24"/>
<path d="M17.6254 8.85059H15.916V10.3701H17.6254V8.85059Z" fill="#754C24"/>
<path d="M19.1445 8.85059H17.625V10.3701H19.1445V8.85059Z" fill="#754C24"/>
<path d="M20.854 8.85059H19.1445V10.3701H20.854V8.85059Z" fill="#754C24"/>
<path d="M22.373 8.85059H20.8535V10.3701H22.373V8.85059Z" fill="#754C24"/>
<path d="M24.0825 8.85059H22.373V10.3701H24.0825V8.85059Z" fill="#754C24"/>
<path d="M25.7915 8.85059H24.082V10.3701H25.7915V8.85059Z" fill="#754C24"/>
<path d="M12.4961 10.3701H10.9766V12.0795H12.4961V10.3701Z" fill="#754C24"/>
<path d="M14.2055 10.3701H12.4961V12.0795H14.2055V10.3701Z" fill="#754C24"/>
<path d="M15.9145 10.3701H14.2051V12.0795H15.9145V10.3701Z" fill="#754C24"/>
<path d="M17.6254 10.3701H15.916V12.0795H17.6254V10.3701Z" fill="#754C24"/>
<path d="M19.1445 10.3701H17.625V12.0795H19.1445V10.3701Z" fill="#754C24"/>
<path d="M20.854 10.3701H19.1445V12.0795H20.854V10.3701Z" fill="#754C24"/>
<path d="M22.373 10.3701H20.8535V12.0795H22.373V10.3701Z" fill="#754C24"/>
<path d="M24.0825 10.3701H22.373V12.0795H24.0825V10.3701Z" fill="#754C24"/>
<path d="M25.7915 10.3701H24.082V12.0795H25.7915V10.3701Z" fill="#754C24"/>
<path d="M27.5004 10.3701H25.791V12.0795H27.5004V10.3701Z" fill="#754C24"/>
<path d="M10.977 12.0796H9.26758V13.789H10.977V12.0796Z" fill="#754C24"/>
<path d="M12.4961 12.0796H10.9766V13.789H12.4961V12.0796Z" fill="#754C24"/>
<path d="M14.2055 12.0796H12.4961V13.789H14.2055V12.0796Z" fill="#754C24"/>
<path d="M15.9145 12.0796H14.2051V13.789H15.9145V12.0796Z" fill="#F4D9BF"/>
<path d="M17.6254 12.0796H15.916V13.789H17.6254V12.0796Z" fill="#F4D9BF"/>
<path d="M19.1445 12.0796H17.625V13.789H19.1445V12.0796Z" fill="#F4D9BF"/>
<path d="M20.854 12.0796H19.1445V13.789H20.854V12.0796Z" fill="#F4D9BF"/>
<path d="M22.373 12.0796H20.8535V13.789H22.373V12.0796Z" fill="#F4D9BF"/>
<path d="M24.0825 12.0796H22.373V13.789H24.0825V12.0796Z" fill="#F4D9BF"/>
<path d="M25.7915 12.0796H24.082V13.789H25.7915V12.0796Z" fill="#F4D9BF"/>
<path d="M27.5004 12.0796H25.791V13.789H27.5004V12.0796Z" fill="#754C24"/>
<path d="M29.0214 12.0796H27.502V13.789H29.0214V12.0796Z" fill="#754C24"/>
<path d="M9.26754 13.7891H7.74805V15.3086H9.26754V13.7891Z" fill="#754C24"/>
<path d="M10.977 13.7891H9.26758V15.3086H10.977V13.7891Z" fill="#754C24"/>
<path d="M12.4961 13.7891H10.9766V15.3086H12.4961V13.7891Z" fill="#754C24"/>
<path d="M14.2055 13.7891H12.4961V15.3086H14.2055V13.7891Z" fill="#754C24"/>
<path d="M15.9145 13.7891H14.2051V15.3086H15.9145V13.7891Z" fill="#F4D9BF"/>
<path d="M17.6254 13.7891H15.916V15.3086H17.6254V13.7891Z" fill="#F4D9BF"/>
<path d="M19.1445 13.7891H17.625V15.3086H19.1445V13.7891Z" fill="#F4D9BF"/>
<path d="M20.854 13.7891H19.1445V15.3086H20.854V13.7891Z" fill="#F4D9BF"/>
<path d="M22.373 13.7891H20.8535V15.3086H22.373V13.7891Z" fill="#F4D9BF"/>
<path d="M24.0825 13.7891H22.373V15.3086H24.0825V13.7891Z" fill="#F4D9BF"/>
<path d="M25.7915 13.7891H24.082V15.3086H25.7915V13.7891Z" fill="#F4D9BF"/>
<path d="M27.5004 13.7891H25.791V15.3086H27.5004V13.7891Z" fill="#754C24"/>
<path d="M29.0214 13.7891H27.502V15.3086H29.0214V13.7891Z" fill="#754C24"/>
<path d="M30.7309 13.7891H29.0215V15.3086H30.7309V13.7891Z" fill="#754C24"/>
<path d="M9.26754 15.3086H7.74805V17.018H9.26754V15.3086Z" fill="#754C24"/>
<path d="M10.977 15.3086H9.26758V17.018H10.977V15.3086Z" fill="#754C24"/>
<path d="M12.4961 15.3086H10.9766V17.018H12.4961V15.3086Z" fill="#754C24"/>
<path d="M14.2055 15.3086H12.4961V17.018H14.2055V15.3086Z" fill="#F4D9BF"/>
<path d="M15.9145 15.3086H14.2051V17.018H15.9145V15.3086Z" fill="#F4D9BF"/>
<path d="M17.6254 15.3086H15.916V17.018H17.6254V15.3086Z" fill="#F4D9BF"/>
<path d="M19.1445 15.3086H17.625V17.018H19.1445V15.3086Z" fill="#F4D9BF"/>
<path d="M20.854 15.3086H19.1445V17.018H20.854V15.3086Z" fill="#F4D9BF"/>
<path d="M22.373 15.3086H20.8535V17.018H22.373V15.3086Z" fill="#F4D9BF"/>
<path d="M24.0825 15.3086H22.373V17.018H24.0825V15.3086Z" fill="#F4D9BF"/>
<path d="M25.7915 15.3086H24.082V17.018H25.7915V15.3086Z" fill="#F4D9BF"/>
<path d="M27.5004 15.3086H25.791V17.018H27.5004V15.3086Z" fill="#F4D9BF"/>
<path d="M29.0214 15.3086H27.502V17.018H29.0214V15.3086Z" fill="#754C24"/>
<path d="M30.7309 15.3086H29.0215V17.018H30.7309V15.3086Z" fill="#754C24"/>
<path d="M32.25 15.3086H30.7305V17.018H32.25V15.3086Z" fill="#754C24"/>
<path d="M9.26754 17.0176H7.74805V18.727H9.26754V17.0176Z" fill="#754C24"/>
<path d="M10.977 17.0176H9.26758V18.727H10.977V17.0176Z" fill="#754C24"/>
<path d="M12.4961 17.0176H10.9766V18.727H12.4961V17.0176Z" fill="#754C24"/>
<path d="M14.2055 17.0176H12.4961V18.727H14.2055V17.0176Z" fill="#F4D9BF"/>
<path d="M15.9145 17.0176H14.2051V18.727H15.9145V17.0176Z" fill="black"/>
<path d="M17.6254 17.0176H15.916V18.727H17.6254V17.0176Z" fill="#F4D9BF"/>
<path d="M19.1445 17.0176H17.625V18.727H19.1445V17.0176Z" fill="#F4D9BF"/>
<path d="M20.854 17.0176H19.1445V18.727H20.854V17.0176Z" fill="#F4D9BF"/>
<path d="M22.373 17.0176H20.8535V18.727H22.373V17.0176Z" fill="#F4D9BF"/>
<path d="M24.0825 17.0176H22.373V18.727H24.0825V17.0176Z" fill="#F4D9BF"/>
<path d="M25.7915 17.0176H24.082V18.727H25.7915V17.0176Z" fill="black"/>
<path d="M27.5004 17.0176H25.791V18.727H27.5004V17.0176Z" fill="#F4D9BF"/>
<path d="M29.0214 17.0176H27.502V18.727H29.0214V17.0176Z" fill="#754C24"/>
<path d="M30.7309 17.0176H29.0215V18.727H30.7309V17.0176Z" fill="#754C24"/>
<path d="M32.25 17.0176H30.7305V18.727H32.25V17.0176Z" fill="#754C24"/>
<path d="M9.26754 18.7271H7.74805V20.2465H9.26754V18.7271Z" fill="#754C24"/>
<path d="M10.977 18.7271H9.26758V20.2465H10.977V18.7271Z" fill="#754C24"/>
<path d="M12.4961 18.7275H10.9766V20.247H12.4961V18.7275Z" fill="#F4D9BF"/>
<path d="M14.2055 18.7275H12.4961V20.247H14.2055V18.7275Z" fill="#F4D9BF"/>
<path d="M15.9145 18.7275H14.2051V20.247H15.9145V18.7275Z" fill="#F4D9BF"/>
<path d="M17.6254 18.7271H15.916V20.2465H17.6254V18.7271Z" fill="#F4D9BF"/>
<path d="M19.1445 18.7271H17.625V20.2465H19.1445V18.7271Z" fill="#F4D9BF"/>
<path d="M20.854 18.7275H19.1445V20.247H20.854V18.7275Z" fill="#F4D9BF"/>
<path d="M22.373 18.7275H20.8535V20.247H22.373V18.7275Z" fill="#F4D9BF"/>
<path d="M24.0825 18.7275H22.373V20.247H24.0825V18.7275Z" fill="#F4D9BF"/>
<path d="M25.7915 18.7271H24.082V20.2465H25.7915V18.7271Z" fill="#F4D9BF"/>
<path d="M27.5004 18.7271H25.791V20.2465H27.5004V18.7271Z" fill="#F4D9BF"/>
<path d="M29.0214 18.7275H27.502V20.247H29.0214V18.7275Z" fill="#F4D9BF"/>
<path d="M30.7309 18.7275H29.0215V20.247H30.7309V18.7275Z" fill="#754C24"/>
<path d="M32.25 18.7271H30.7305V20.2465H32.25V18.7271Z" fill="#754C24"/>
<path d="M9.26754 20.2466H7.74805V21.956H9.26754V20.2466Z" fill="#754C24"/>
<path d="M10.977 20.2466H9.26758V21.956H10.977V20.2466Z" fill="#754C24"/>
<path d="M12.4961 20.2466H10.9766V21.956H12.4961V20.2466Z" fill="#F4D9BF"/>
<path d="M14.2055 20.2466H12.4961V21.956H14.2055V20.2466Z" fill="#F4D9BF"/>
<path d="M15.9145 20.2466H14.2051V21.956H15.9145V20.2466Z" fill="#F4D9BF"/>
<path d="M17.6254 20.2466H15.916V21.956H17.6254V20.2466Z" fill="#F4D9BF"/>
<path d="M19.1445 20.2466H17.625V21.956H19.1445V20.2466Z" fill="#F4D9BF"/>
<path d="M20.854 20.2466H19.1445V21.956H20.854V20.2466Z" fill="#F4D9BF"/>
<path d="M22.373 20.2466H20.8535V21.956H22.373V20.2466Z" fill="#F4D9BF"/>
<path d="M24.0825 20.2466H22.373V21.956H24.0825V20.2466Z" fill="#F4D9BF"/>
<path d="M25.7915 20.2466H24.082V21.956H25.7915V20.2466Z" fill="#F4D9BF"/>
<path d="M27.5004 20.2466H25.791V21.956H27.5004V20.2466Z" fill="#F4D9BF"/>
<path d="M29.0214 20.2466H27.502V21.956H29.0214V20.2466Z" fill="#F4D9BF"/>
<path d="M30.7309 20.2466H29.0215V21.956H30.7309V20.2466Z" fill="#754C24"/>
<path d="M32.25 20.2466H30.7305V21.956H32.25V20.2466Z" fill="#754C24"/>
<path d="M10.977 21.9561H9.26758V23.6655H10.977V21.9561Z" fill="#754C24"/>
<path d="M12.4961 21.9565H10.9766V23.666H12.4961V21.9565Z" fill="#CCCCCC"/>
<path d="M14.2055 21.9565H12.4961V23.666H14.2055V21.9565Z" fill="#F4D9BF"/>
<path d="M15.9145 21.9565H14.2051V23.666H15.9145V21.9565Z" fill="#F4D9BF"/>
<path d="M17.6254 21.9561H15.916V23.6655H17.6254V21.9561Z" fill="#F4D9BF"/>
<path d="M19.1445 21.9561H17.625V23.6655H19.1445V21.9561Z" fill="#F4D9BF"/>
<path d="M20.854 21.9565H19.1445V23.666H20.854V21.9565Z" fill="#F4D9BF"/>
<path d="M22.373 21.9565H20.8535V23.666H22.373V21.9565Z" fill="#F4D9BF"/>
<path d="M24.0825 21.9565H22.373V23.666H24.0825V21.9565Z" fill="#F4D9BF"/>
<path d="M25.7915 21.9561H24.082V23.6655H25.7915V21.9561Z" fill="#F4D9BF"/>
<path d="M27.5004 21.9561H25.791V23.6655H27.5004V21.9561Z" fill="#F4D9BF"/>
<path d="M29.0214 21.9565H27.502V23.666H29.0214V21.9565Z" fill="#CCCCCC"/>
<path d="M30.7309 21.9565H29.0215V23.666H30.7309V21.9565Z" fill="#754C24"/>
<path d="M14.2055 23.666H12.4961V25.1855H14.2055V23.666Z" fill="#F4D9BF"/>
<path d="M15.9145 23.666H14.2051V25.1855H15.9145V23.666Z" fill="#F4D9BF"/>
<path d="M17.6254 23.666H15.916V25.1855H17.6254V23.666Z" fill="#C1272D"/>
<path d="M19.1445 23.666H17.625V25.1855H19.1445V23.666Z" fill="#F4D9BF"/>
<path d="M20.854 23.666H19.1445V25.1855H20.854V23.666Z" fill="#F4D9BF"/>
<path d="M22.373 23.666H20.8535V25.1855H22.373V23.666Z" fill="#F4D9BF"/>
<path d="M24.0825 23.666H22.373V25.1855H24.0825V23.666Z" fill="#C1272D"/>
<path d="M25.7915 23.666H24.082V25.1855H25.7915V23.666Z" fill="#F4D9BF"/>
<path d="M27.5004 23.666H25.791V25.1855H27.5004V23.666Z" fill="#F4D9BF"/>
<path d="M14.2055 25.1851H12.4961V26.8945H14.2055V25.1851Z" fill="#F4D9BF"/>
<path d="M15.9145 25.1851H14.2051V26.8945H15.9145V25.1851Z" fill="#F4D9BF"/>
<path d="M17.6254 25.1851H15.916V26.8945H17.6254V25.1851Z" fill="#F4D9BF"/>
<path d="M19.1445 25.1851H17.625V26.8945H19.1445V25.1851Z" fill="#C1272D"/>
<path d="M20.854 25.1851H19.1445V26.8945H20.854V25.1851Z" fill="#C1272D"/>
<path d="M22.373 25.1851H20.8535V26.8945H22.373V25.1851Z" fill="#C1272D"/>
<path d="M24.0825 25.1851H22.373V26.8945H24.0825V25.1851Z" fill="#F4D9BF"/>
<path d="M25.7915 25.1851H24.082V26.8945H25.7915V25.1851Z" fill="#F4D9BF"/>
<path d="M27.5004 25.1851H25.791V26.8945H27.5004V25.1851Z" fill="#F4D9BF"/>
<path d="M15.9145 26.8945H14.2051V28.604H15.9145V26.8945Z" fill="#F4D9BF"/>
<path d="M17.6254 26.8945H15.916V28.604H17.6254V26.8945Z" fill="#F4D9BF"/>
<path d="M19.1445 26.8945H17.625V28.604H19.1445V26.8945Z" fill="#F4D9BF"/>
<path d="M20.854 26.8945H19.1445V28.604H20.854V26.8945Z" fill="#F4D9BF"/>
<path d="M22.373 26.8945H20.8535V28.604H22.373V26.8945Z" fill="#F4D9BF"/>
<path d="M24.0825 26.8945H22.373V28.604H24.0825V26.8945Z" fill="#F4D9BF"/>
<path d="M25.7915 26.8945H24.082V28.604H25.7915V26.8945Z" fill="#F4D9BF"/>
<path d="M17.6254 28.604H15.916V30.1235H17.6254V28.604Z" fill="#F4D9BF"/>
<path d="M19.1445 28.604H17.625V30.1235H19.1445V28.604Z" fill="#F4D9BF"/>
<path d="M20.854 28.604H19.1445V30.1235H20.854V28.604Z" fill="#F4D9BF"/>
<path d="M22.373 28.604H20.8535V30.1235H22.373V28.604Z" fill="#F4D9BF"/>
<path d="M24.0825 28.604H22.373V30.1235H24.0825V28.604Z" fill="#F4D9BF"/>
<path d="M19.1445 30.1235H17.625V31.833H19.1445V30.1235Z" fill="#F4D9BF"/>
<path d="M20.854 30.1235H19.1445V31.833H20.854V30.1235Z" fill="#F4D9BF"/>
<path d="M22.373 30.1235H20.8535V31.833H22.373V30.1235Z" fill="#F4D9BF"/>
<path d="M19.1445 31.833H17.625V33.5424H19.1445V31.833Z" fill="#F4D9BF"/>
<path d="M20.854 31.833H19.1445V33.5424H20.854V31.833Z" fill="#F4D9BF"/>
<path d="M22.373 31.833H20.8535V33.5424H22.373V31.833Z" fill="#F4D9BF"/>
<path d="M14.2055 33.5425H12.4961V35.062H14.2055V33.5425Z" fill="black"/>
<path d="M15.9145 33.5425H14.2051V35.062H15.9145V33.5425Z" fill="black"/>
<path d="M17.6254 33.5425H15.916V35.062H17.6254V33.5425Z" fill="black"/>
<path d="M19.1445 33.5425H17.625V35.062H19.1445V33.5425Z" fill="black"/>
<path d="M20.854 33.5425H19.1445V35.062H20.854V33.5425Z" fill="#F4D9BF"/>
<path d="M22.373 33.5425H20.8535V35.062H22.373V33.5425Z" fill="black"/>
<path d="M24.0825 33.5425H22.373V35.062H24.0825V33.5425Z" fill="black"/>
<path d="M25.7915 33.5425H24.082V35.062H25.7915V33.5425Z" fill="black"/>
<path d="M12.4961 35.062H10.9766V36.7714H12.4961V35.062Z" fill="black"/>
<path d="M14.2055 35.062H12.4961V36.7714H14.2055V35.062Z" fill="black"/>
<path d="M15.9145 35.062H14.2051V36.7714H15.9145V35.062Z" fill="black"/>
<path d="M17.6254 35.062H15.916V36.7714H17.6254V35.062Z" fill="black"/>
<path d="M19.1445 35.062H17.625V36.7714H19.1445V35.062Z" fill="black"/>
<path d="M20.854 35.062H19.1445V36.7714H20.854V35.062Z" fill="black"/>
<path d="M22.373 35.062H20.8535V36.7714H22.373V35.062Z" fill="black"/>
<path d="M24.0825 35.062H22.373V36.7714H24.0825V35.062Z" fill="black"/>
<path d="M25.7915 35.062H24.082V36.7714H25.7915V35.062Z" fill="black"/>
<path d="M27.5004 35.062H25.791V36.7714H27.5004V35.062Z" fill="black"/>
<path d="M10.977 36.7715H9.26758V38.4809H10.977V36.7715Z" fill="black"/>
<path d="M12.4961 36.7715H10.9766V38.4809H12.4961V36.7715Z" fill="black"/>
<path d="M14.2055 36.7715H12.4961V38.4809H14.2055V36.7715Z" fill="black"/>
<path d="M15.9145 36.7715H14.2051V38.4809H15.9145V36.7715Z" fill="black"/>
<path d="M17.6254 36.7715H15.916V38.4809H17.6254V36.7715Z" fill="black"/>
<path d="M19.1445 36.7715H17.625V38.4809H19.1445V36.7715Z" fill="black"/>
<path d="M20.854 36.7715H19.1445V38.4809H20.854V36.7715Z" fill="black"/>
<path d="M22.373 36.7715H20.8535V38.4809H22.373V36.7715Z" fill="black"/>
<path d="M24.0825 36.7715H22.373V38.4809H24.0825V36.7715Z" fill="black"/>
<path d="M25.7915 36.7715H24.082V38.4809H25.7915V36.7715Z" fill="black"/>
<path d="M27.5004 36.7715H25.791V38.4809H27.5004V36.7715Z" fill="black"/>
<path d="M29.0214 36.7715H27.502V38.4809H29.0214V36.7715Z" fill="black"/>
<path d="M9.26754 38.4805H7.74805V40H9.26754V38.4805Z" fill="black"/>
<path d="M10.977 38.4805H9.26758V40H10.977V38.4805Z" fill="black"/>
<path d="M12.4961 38.4805H10.9766V40H12.4961V38.4805Z" fill="black"/>
<path d="M14.2055 38.4805H12.4961V40H14.2055V38.4805Z" fill="black"/>
<path d="M15.9145 38.4805H14.2051V40H15.9145V38.4805Z" fill="black"/>
<path d="M17.6254 38.4805H15.916V40H17.6254V38.4805Z" fill="black"/>
<path d="M19.1445 38.4805H17.625V40H19.1445V38.4805Z" fill="black"/>
<path d="M20.854 38.4805H19.1445V40H20.854V38.4805Z" fill="black"/>
<path d="M22.373 38.4805H20.8535V40H22.373V38.4805Z" fill="black"/>
<path d="M24.0825 38.4805H22.373V40H24.0825V38.4805Z" fill="black"/>
<path d="M25.7915 38.4805H24.082V40H25.7915V38.4805Z" fill="black"/>
<path d="M27.5004 38.4805H25.791V40H27.5004V38.4805Z" fill="black"/>
<path d="M29.0214 38.4805H27.502V40H29.0214V38.4805Z" fill="black"/>
<path d="M30.7309 38.4805H29.0215V40H30.7309V38.4805Z" fill="black"/>
</g>
<rect x="0.6" y="0.6" width="38.8" height="38.8" rx="19.4" stroke="black" stroke-width="1.2"/>
<defs>
<clipPath id="clip0_2220_2110">
<rect width="40" height="40" rx="20" fill="white"/>
</clipPath>
</defs>
</svg>
