<svg width="41" height="41" viewBox="0 0 41 41" fill="none" xmlns="http://www.w3.org/2000/svg">
<g clip-path="url(#clip0_6_45657)">
<rect x="0.666992" y="0.5" width="40" height="40" rx="20" fill="#FFC4E7"/>
<path d="M17.9814 4.75928H16.1221V6.41202H17.9814V4.75928Z" fill="#FFED00"/>
<path d="M19.8408 4.75928H17.9814V6.41202H19.8408V4.75928Z" fill="#FFED00"/>
<path d="M21.4936 4.75928H19.8408V6.41202H21.4936V4.75928Z" fill="#FFED00"/>
<path d="M23.3525 4.75928H21.4932V6.41202H23.3525V4.75928Z" fill="#FFED00"/>
<path d="M25.2119 4.75928H23.3525V6.41202H25.2119V4.75928Z" fill="#FFED00"/>
<path d="M16.1225 6.41211H14.4697V8.27145H16.1225V6.41211Z" fill="#FFED00"/>
<path d="M17.9814 6.41211H16.1221V8.27145H17.9814V6.41211Z" fill="#FFED00"/>
<path d="M19.8408 6.41211H17.9814V8.27145H19.8408V6.41211Z" fill="#FFED00"/>
<path d="M21.4936 6.41211H19.8408V8.27145H21.4936V6.41211Z" fill="#FFED00"/>
<path d="M23.3525 6.41211H21.4932V8.27145H23.3525V6.41211Z" fill="#FFED00"/>
<path d="M25.2119 6.41211H23.3525V8.27145H25.2119V6.41211Z" fill="#FFED00"/>
<path d="M26.8647 6.41211H25.2119V8.27145H26.8647V6.41211Z" fill="#FFED00"/>
<path d="M14.4697 8.27148H12.6104V10.1308H14.4697V8.27148Z" fill="#FFED00"/>
<path d="M16.1225 8.27148H14.4697V10.1308H16.1225V8.27148Z" fill="#FFED00"/>
<path d="M17.9814 8.27148H16.1221V10.1308H17.9814V8.27148Z" fill="#FFED00"/>
<path d="M19.8408 8.27148H17.9814V10.1308H19.8408V8.27148Z" fill="#FFED00"/>
<path d="M21.4936 8.27148H19.8408V10.1308H21.4936V8.27148Z" fill="#FFED00"/>
<path d="M23.3525 8.27148H21.4932V10.1308H23.3525V8.27148Z" fill="#FFED00"/>
<path d="M25.2119 8.27148H23.3525V10.1308H25.2119V8.27148Z" fill="#FFED00"/>
<path d="M26.8647 8.27148H25.2119V10.1308H26.8647V8.27148Z" fill="#FFED00"/>
<path d="M28.7236 8.27148H26.8643V10.1308H28.7236V8.27148Z" fill="#FFED00"/>
<path d="M12.6103 10.1309H10.751V11.7836H12.6103V10.1309Z" fill="#FFED00"/>
<path d="M14.4697 10.1309H12.6104V11.7836H14.4697V10.1309Z" fill="#FFED00"/>
<path d="M16.1225 10.1309H14.4697V11.7836H16.1225V10.1309Z" fill="#F4D9BF"/>
<path d="M17.9814 10.1309H16.1221V11.7836H17.9814V10.1309Z" fill="#F4D9BF"/>
<path d="M19.8408 10.1309H17.9814V11.7836H19.8408V10.1309Z" fill="#F4D9BF"/>
<path d="M21.4936 10.1309H19.8408V11.7836H21.4936V10.1309Z" fill="#F4D9BF"/>
<path d="M23.3525 10.1309H21.4932V11.7836H23.3525V10.1309Z" fill="#FFED00"/>
<path d="M25.2119 10.1309H23.3525V11.7836H25.2119V10.1309Z" fill="#FFED00"/>
<path d="M26.8647 10.1309H25.2119V11.7836H26.8647V10.1309Z" fill="#FFED00"/>
<path d="M28.7236 10.1309H26.8643V11.7836H28.7236V10.1309Z" fill="#FFED00"/>
<path d="M30.583 10.1309H28.7236V11.7836H30.583V10.1309Z" fill="#FFED00"/>
<path d="M10.7514 11.7832H9.09863V13.6425H10.7514V11.7832Z" fill="#FFED00"/>
<path d="M12.6103 11.7832H10.751V13.6425H12.6103V11.7832Z" fill="#FFED00"/>
<path d="M14.4697 11.7832H12.6104V13.6425H14.4697V11.7832Z" fill="#FFED00"/>
<path d="M16.1225 11.7832H14.4697V13.6425H16.1225V11.7832Z" fill="#F4D9BF"/>
<path d="M17.9814 11.7832H16.1221V13.6425H17.9814V11.7832Z" fill="#F4D9BF"/>
<path d="M19.8408 11.7832H17.9814V13.6425H19.8408V11.7832Z" fill="#F4D9BF"/>
<path d="M21.4936 11.7832H19.8408V13.6425H21.4936V11.7832Z" fill="#F4D9BF"/>
<path d="M23.3525 11.7832H21.4932V13.6425H23.3525V11.7832Z" fill="#F4D9BF"/>
<path d="M25.2119 11.7832H23.3525V13.6425H25.2119V11.7832Z" fill="#F4D9BF"/>
<path d="M26.8647 11.7832H25.2119V13.6425H26.8647V11.7832Z" fill="#F4D9BF"/>
<path d="M28.7236 11.7832H26.8643V13.6425H28.7236V11.7832Z" fill="#FFED00"/>
<path d="M30.583 11.7832H28.7236V13.6425H30.583V11.7832Z" fill="#FFED00"/>
<path d="M32.2358 11.7832H30.583V13.6425H32.2358V11.7832Z" fill="#FFED00"/>
<path d="M9.0986 13.6426H7.23926V15.5019H9.0986V13.6426Z" fill="#FFED00"/>
<path d="M10.7514 13.6426H9.09863V15.5019H10.7514V13.6426Z" fill="#FFED00"/>
<path d="M12.6103 13.6426H10.751V15.5019H12.6103V13.6426Z" fill="#FFED00"/>
<path d="M14.4697 13.6426H12.6104V15.5019H14.4697V13.6426Z" fill="#F4D9BF"/>
<path d="M16.1225 13.6426H14.4697V15.5019H16.1225V13.6426Z" fill="#F4D9BF"/>
<path d="M17.9814 13.6426H16.1221V15.5019H17.9814V13.6426Z" fill="#F4D9BF"/>
<path d="M19.8408 13.6426H17.9814V15.5019H19.8408V13.6426Z" fill="#F4D9BF"/>
<path d="M21.4936 13.6426H19.8408V15.5019H21.4936V13.6426Z" fill="#F4D9BF"/>
<path d="M23.3525 13.6426H21.4932V15.5019H23.3525V13.6426Z" fill="#F4D9BF"/>
<path d="M25.2119 13.6426H23.3525V15.5019H25.2119V13.6426Z" fill="#F4D9BF"/>
<path d="M26.8647 13.6426H25.2119V15.5019H26.8647V13.6426Z" fill="#F4D9BF"/>
<path d="M28.7236 13.6426H26.8643V15.5019H28.7236V13.6426Z" fill="#F4D9BF"/>
<path d="M30.583 13.6426H28.7236V15.5019H30.583V13.6426Z" fill="#FFED00"/>
<path d="M32.2358 13.6426H30.583V15.5019H32.2358V13.6426Z" fill="#FFED00"/>
<path d="M34.0947 13.6426H32.2354V15.5019H34.0947V13.6426Z" fill="#FFED00"/>
<path d="M9.0986 15.502H7.23926V17.1547H9.0986V15.502Z" fill="#FFED00"/>
<path d="M10.7514 15.502H9.09863V17.1547H10.7514V15.502Z" fill="#FFED00"/>
<path d="M12.6103 15.502H10.751V17.1547H12.6103V15.502Z" fill="#FFED00"/>
<path d="M14.4697 15.502H12.6104V17.1547H14.4697V15.502Z" fill="#F4D9BF"/>
<path d="M16.1225 15.502H14.4697V17.1547H16.1225V15.502Z" fill="#33B4AE"/>
<path d="M17.9814 15.502H16.1221V17.1547H17.9814V15.502Z" fill="#F4D9BF"/>
<path d="M19.8408 15.502H17.9814V17.1547H19.8408V15.502Z" fill="#F4D9BF"/>
<path d="M21.4936 15.502H19.8408V17.1547H21.4936V15.502Z" fill="#F4D9BF"/>
<path d="M23.3525 15.502H21.4932V17.1547H23.3525V15.502Z" fill="#F4D9BF"/>
<path d="M25.2119 15.502H23.3525V17.1547H25.2119V15.502Z" fill="#F4D9BF"/>
<path d="M26.8647 15.502H25.2119V17.1547H26.8647V15.502Z" fill="#33B4AE"/>
<path d="M28.7236 15.502H26.8643V17.1547H28.7236V15.502Z" fill="#F4D9BF"/>
<path d="M30.583 15.502H28.7236V17.1547H30.583V15.502Z" fill="#FFED00"/>
<path d="M32.2358 15.502H30.583V17.1547H32.2358V15.502Z" fill="#FFED00"/>
<path d="M34.0947 15.502H32.2354V17.1547H34.0947V15.502Z" fill="#FFED00"/>
<path d="M9.0986 17.1548H7.23926V19.0141H9.0986V17.1548Z" fill="#FFED00"/>
<path d="M10.7514 17.1548H9.09863V19.0141H10.7514V17.1548Z" fill="#FFED00"/>
<path d="M12.6103 17.1548H10.751V19.0141H12.6103V17.1548Z" fill="#F4D9BF"/>
<path d="M14.4697 17.1548H12.6104V19.0141H14.4697V17.1548Z" fill="#F4D9BF"/>
<path d="M16.1225 17.1548H14.4697V19.0141H16.1225V17.1548Z" fill="#F4D9BF"/>
<path d="M17.9814 17.1548H16.1221V19.0141H17.9814V17.1548Z" fill="#F4D9BF"/>
<path d="M19.8408 17.1548H17.9814V19.0141H19.8408V17.1548Z" fill="#F4D9BF"/>
<path d="M21.4936 17.1548H19.8408V19.0141H21.4936V17.1548Z" fill="#F4D9BF"/>
<path d="M23.3525 17.1548H21.4932V19.0141H23.3525V17.1548Z" fill="#F4D9BF"/>
<path d="M25.2119 17.1548H23.3525V19.0141H25.2119V17.1548Z" fill="#F4D9BF"/>
<path d="M26.8647 17.1548H25.2119V19.0141H26.8647V17.1548Z" fill="#F4D9BF"/>
<path d="M28.7236 17.1548H26.8643V19.0141H28.7236V17.1548Z" fill="#F4D9BF"/>
<path d="M30.583 17.1548H28.7236V19.0141H30.583V17.1548Z" fill="#F4D9BF"/>
<path d="M32.2358 17.1548H30.583V19.0141H32.2358V17.1548Z" fill="#FFED00"/>
<path d="M34.0947 17.1548H32.2354V19.0141H34.0947V17.1548Z" fill="#FFED00"/>
<path d="M9.0986 19.0142H7.23926V20.8735H9.0986V19.0142Z" fill="#FFED00"/>
<path d="M10.7514 19.0142H9.09863V20.8735H10.7514V19.0142Z" fill="#FFED00"/>
<path d="M12.6103 19.0142H10.751V20.8735H12.6103V19.0142Z" fill="#F4D9BF"/>
<path d="M14.4697 19.0142H12.6104V20.8735H14.4697V19.0142Z" fill="#F4D9BF"/>
<path d="M16.1225 19.0142H14.4697V20.8735H16.1225V19.0142Z" fill="#F4D9BF"/>
<path d="M17.9814 19.0142H16.1221V20.8735H17.9814V19.0142Z" fill="#F4D9BF"/>
<path d="M19.8408 19.0142H17.9814V20.8735H19.8408V19.0142Z" fill="#F4D9BF"/>
<path d="M21.4936 19.0142H19.8408V20.8735H21.4936V19.0142Z" fill="#F4D9BF"/>
<path d="M23.3525 19.0142H21.4932V20.8735H23.3525V19.0142Z" fill="#F4D9BF"/>
<path d="M25.2119 19.0142H23.3525V20.8735H25.2119V19.0142Z" fill="#F4D9BF"/>
<path d="M26.8647 19.0142H25.2119V20.8735H26.8647V19.0142Z" fill="#F4D9BF"/>
<path d="M28.7236 19.0142H26.8643V20.8735H28.7236V19.0142Z" fill="#F4D9BF"/>
<path d="M30.583 19.0142H28.7236V20.8735H30.583V19.0142Z" fill="#F4D9BF"/>
<path d="M32.2358 19.0142H30.583V20.8735H32.2358V19.0142Z" fill="#FFED00"/>
<path d="M34.0947 19.0142H32.2354V20.8735H34.0947V19.0142Z" fill="#FFED00"/>
<path d="M9.0986 20.8735H7.23926V22.5263H9.0986V20.8735Z" fill="#FFED00"/>
<path d="M10.7514 20.8735H9.09863V22.5263H10.7514V20.8735Z" fill="#FFED00"/>
<path d="M12.6103 20.8735H10.751V22.5263H12.6103V20.8735Z" fill="#C6C6C6"/>
<path d="M14.4697 20.8735H12.6104V22.5263H14.4697V20.8735Z" fill="#F4D9BF"/>
<path d="M16.1225 20.873H14.4697V22.5258H16.1225V20.873Z" fill="#F4D9BF"/>
<path d="M17.9814 20.8735H16.1221V22.5263H17.9814V20.8735Z" fill="#F4D9BF"/>
<path d="M19.8408 20.8735H17.9814V22.5263H19.8408V20.8735Z" fill="#F4D9BF"/>
<path d="M21.4936 20.873H19.8408V22.5258H21.4936V20.873Z" fill="#F4D9BF"/>
<path d="M23.3525 20.8735H21.4932V22.5263H23.3525V20.8735Z" fill="#F4D9BF"/>
<path d="M25.2119 20.8735H23.3525V22.5263H25.2119V20.8735Z" fill="#F4D9BF"/>
<path d="M26.8647 20.873H25.2119V22.5258H26.8647V20.873Z" fill="#F4D9BF"/>
<path d="M28.7236 20.8735H26.8643V22.5263H28.7236V20.8735Z" fill="#F4D9BF"/>
<path d="M30.583 20.873H28.7236V22.5258H30.583V20.873Z" fill="#C6C6C6"/>
<path d="M32.2358 20.873H30.583V22.5258H32.2358V20.873Z" fill="#FFED00"/>
<path d="M34.0947 20.8735H32.2354V22.5263H34.0947V20.8735Z" fill="#FFED00"/>
<path d="M9.0986 22.5264H7.23926V24.3857H9.0986V22.5264Z" fill="#FFED00"/>
<path d="M10.7514 22.5264H9.09863V24.3857H10.7514V22.5264Z" fill="#FFED00"/>
<path d="M12.6103 22.5264H10.751V24.3857H12.6103V22.5264Z" fill="#FFED00"/>
<path d="M14.4697 22.5264H12.6104V24.3857H14.4697V22.5264Z" fill="#F4D9BF"/>
<path d="M16.1225 22.5264H14.4697V24.3857H16.1225V22.5264Z" fill="#F4D9BF"/>
<path d="M17.9814 22.5264H16.1221V24.3857H17.9814V22.5264Z" fill="#F4D9BF"/>
<path d="M19.8408 22.5264H17.9814V24.3857H19.8408V22.5264Z" fill="#F4D9BF"/>
<path d="M21.4936 22.5264H19.8408V24.3857H21.4936V22.5264Z" fill="#F4D9BF"/>
<path d="M23.3525 22.5264H21.4932V24.3857H23.3525V22.5264Z" fill="#F4D9BF"/>
<path d="M25.2119 22.5264H23.3525V24.3857H25.2119V22.5264Z" fill="#F4D9BF"/>
<path d="M26.8647 22.5264H25.2119V24.3857H26.8647V22.5264Z" fill="#F4D9BF"/>
<path d="M28.7236 22.5264H26.8643V24.3857H28.7236V22.5264Z" fill="#F4D9BF"/>
<path d="M30.583 22.5264H28.7236V24.3857H30.583V22.5264Z" fill="#FFED00"/>
<path d="M32.2358 22.5264H30.583V24.3857H32.2358V22.5264Z" fill="#FFED00"/>
<path d="M34.0947 22.5264H32.2354V24.3857H34.0947V22.5264Z" fill="#FFED00"/>
<path d="M9.0986 24.3853H7.23926V26.2446H9.0986V24.3853Z" fill="#FFED00"/>
<path d="M10.7514 24.3853H9.09863V26.2446H10.7514V24.3853Z" fill="#FFED00"/>
<path d="M12.6103 24.3853H10.751V26.2446H12.6103V24.3853Z" fill="#FFED00"/>
<path d="M14.4697 24.3853H12.6104V26.2446H14.4697V24.3853Z" fill="#F4D9BF"/>
<path d="M16.1225 24.3857H14.4697V26.2451H16.1225V24.3857Z" fill="#F4D9BF"/>
<path d="M17.9814 24.3853H16.1221V26.2446H17.9814V24.3853Z" fill="#F4D9BF"/>
<path d="M19.8408 24.3853H17.9814V26.2446H19.8408V24.3853Z" fill="#E94B59"/>
<path d="M21.4936 24.3857H19.8408V26.2451H21.4936V24.3857Z" fill="#E94B59"/>
<path d="M23.3525 24.3853H21.4932V26.2446H23.3525V24.3853Z" fill="#E94B59"/>
<path d="M25.2119 24.3853H23.3525V26.2446H25.2119V24.3853Z" fill="#F4D9BF"/>
<path d="M26.8647 24.3857H25.2119V26.2451H26.8647V24.3857Z" fill="#F4D9BF"/>
<path d="M28.7236 24.3853H26.8643V26.2446H28.7236V24.3853Z" fill="#F4D9BF"/>
<path d="M30.583 24.3857H28.7236V26.2451H30.583V24.3857Z" fill="#FFED00"/>
<path d="M32.2358 24.3857H30.583V26.2451H32.2358V24.3857Z" fill="#FFED00"/>
<path d="M34.0947 24.3853H32.2354V26.2446H34.0947V24.3853Z" fill="#FFED00"/>
<path d="M10.7514 26.2446H9.09863V27.8974H10.7514V26.2446Z" fill="#FFED00"/>
<path d="M12.6103 26.2446H10.751V27.8974H12.6103V26.2446Z" fill="#FFED00"/>
<path d="M14.4697 26.2446H12.6104V27.8974H14.4697V26.2446Z" fill="#FFED00"/>
<path d="M16.1225 26.2446H14.4697V27.8974H16.1225V26.2446Z" fill="#F4D9BF"/>
<path d="M17.9814 26.2446H16.1221V27.8974H17.9814V26.2446Z" fill="#F4D9BF"/>
<path d="M19.8408 26.2446H17.9814V27.8974H19.8408V26.2446Z" fill="#F4D9BF"/>
<path d="M21.4936 26.2446H19.8408V27.8974H21.4936V26.2446Z" fill="#F4D9BF"/>
<path d="M23.3525 26.2446H21.4932V27.8974H23.3525V26.2446Z" fill="#F4D9BF"/>
<path d="M25.2119 26.2446H23.3525V27.8974H25.2119V26.2446Z" fill="#F4D9BF"/>
<path d="M26.8647 26.2446H25.2119V27.8974H26.8647V26.2446Z" fill="#F4D9BF"/>
<path d="M28.7236 26.2446H26.8643V27.8974H28.7236V26.2446Z" fill="#FFED00"/>
<path d="M30.583 26.2446H28.7236V27.8974H30.583V26.2446Z" fill="#FFED00"/>
<path d="M32.2358 26.2446H30.583V27.8974H32.2358V26.2446Z" fill="#FFED00"/>
<path d="M12.6103 27.8975H10.751V29.7568H12.6103V27.8975Z" fill="#FFED00"/>
<path d="M14.4697 27.8975H12.6104V29.7568H14.4697V27.8975Z" fill="#FFED00"/>
<path d="M16.1225 27.8975H14.4697V29.7568H16.1225V27.8975Z" fill="#FFED00"/>
<path d="M17.9814 27.8975H16.1221V29.7568H17.9814V27.8975Z" fill="#F4D9BF"/>
<path d="M19.8408 27.8975H17.9814V29.7568H19.8408V27.8975Z" fill="#F4D9BF"/>
<path d="M21.4936 27.8975H19.8408V29.7568H21.4936V27.8975Z" fill="#F4D9BF"/>
<path d="M23.3525 27.8975H21.4932V29.7568H23.3525V27.8975Z" fill="#F4D9BF"/>
<path d="M25.2119 27.8975H23.3525V29.7568H25.2119V27.8975Z" fill="#F4D9BF"/>
<path d="M26.8647 27.8975H25.2119V29.7568H26.8647V27.8975Z" fill="#FFED00"/>
<path d="M28.7236 27.8975H26.8643V29.7568H28.7236V27.8975Z" fill="#FFED00"/>
<path d="M30.583 27.8975H28.7236V29.7568H30.583V27.8975Z" fill="#FFED00"/>
<path d="M14.4697 29.7568H12.6104V31.6162H14.4697V29.7568Z" fill="#FFED00"/>
<path d="M16.1225 29.7568H14.4697V31.6162H16.1225V29.7568Z" fill="#FFED00"/>
<path d="M17.9814 29.7568H16.1221V31.6162H17.9814V29.7568Z" fill="#FFED00"/>
<path d="M19.8408 29.7568H17.9814V31.6162H19.8408V29.7568Z" fill="#F4D9BF"/>
<path d="M21.4936 29.7568H19.8408V31.6162H21.4936V29.7568Z" fill="#F4D9BF"/>
<path d="M23.3525 29.7568H21.4932V31.6162H23.3525V29.7568Z" fill="#F4D9BF"/>
<path d="M25.2119 29.7568H23.3525V31.6162H25.2119V29.7568Z" fill="#FFED00"/>
<path d="M26.8647 29.7568H25.2119V31.6162H26.8647V29.7568Z" fill="#FFED00"/>
<path d="M28.7236 29.7568H26.8643V31.6162H28.7236V29.7568Z" fill="#FFED00"/>
<path d="M19.8408 31.6162H17.9814V33.269H19.8408V31.6162Z" fill="#F4D9BF"/>
<path d="M21.4936 31.6162H19.8408V33.269H21.4936V31.6162Z" fill="#F4D9BF"/>
<path d="M23.3525 31.6162H21.4932V33.269H23.3525V31.6162Z" fill="#F4D9BF"/>
<path d="M23.3525 31.6162H25.2119V33.269H23.3525" fill="#FFED00"/>
<path d="M19.8408 33.269H17.9814V35.1284H19.8408V33.269Z" fill="#F4D9BF"/>
<path d="M21.4936 33.269H19.8408V35.1284H21.4936V33.269Z" fill="#F4D9BF"/>
<path d="M23.3525 33.269H21.4932V35.1284H23.3525V33.269Z" fill="#F4D9BF"/>
<path d="M16.1225 33.269H14.4697V35.1284H16.1225V33.269Z" fill="#C167A7"/>
<path d="M17.9814 33.269H16.1221V35.1284H17.9814V33.269Z" fill="#C167A7"/>
<path d="M25.2119 33.269H23.3525V35.1284H25.2119V33.269Z" fill="#C167A7"/>
<path d="M26.8647 33.269H25.2119V35.1284H26.8647V33.269Z" fill="#C167A7"/>
<path d="M14.4697 35.1284H12.6104V36.9878H14.4697V35.1284Z" fill="#C167A7"/>
<path d="M16.1225 35.1284H14.4697V36.9878H16.1225V35.1284Z" fill="#C167A7"/>
<path d="M17.9814 35.1284H16.1221V36.9878H17.9814V35.1284Z" fill="#C167A7"/>
<path d="M19.8408 35.1284H17.9814V36.9878H19.8408V35.1284Z" fill="#C167A7"/>
<path d="M21.4936 35.1284H19.8408V36.9878H21.4936V35.1284Z" fill="#C167A7"/>
<path d="M23.3545 35.1284H21.4951V36.9878H23.3545V35.1284Z" fill="#C167A7"/>
<path d="M25.2119 35.1284H23.3525V36.9878H25.2119V35.1284Z" fill="#C167A7"/>
<path d="M26.8647 35.1284H25.2119V36.9878H26.8647V35.1284Z" fill="#C167A7"/>
<path d="M12.6103 36.9878H10.751V38.6405H12.6103V36.9878Z" fill="#C167A7"/>
<path d="M14.4697 36.9878H12.6104V38.6405H14.4697V36.9878Z" fill="#C167A7"/>
<path d="M16.1225 36.9878H14.4697V38.6405H16.1225V36.9878Z" fill="#C167A7"/>
<path d="M17.9814 36.9878H16.1221V38.6405H17.9814V36.9878Z" fill="#C167A7"/>
<path d="M19.8408 36.9878H17.9814V38.6405H19.8408V36.9878Z" fill="#C167A7"/>
<path d="M21.4936 36.9878H19.8408V38.6405H21.4936V36.9878Z" fill="#C167A7"/>
<path d="M23.3545 36.9878H21.4951V38.6405H23.3545V36.9878Z" fill="#C167A7"/>
<path d="M25.2119 36.9878H23.3525V38.6405H25.2119V36.9878Z" fill="#C167A7"/>
<path d="M26.8647 36.9878H25.2119V38.6405H26.8647V36.9878Z" fill="#C167A7"/>
<path d="M28.7255 36.9878H26.8662V38.6405H28.7255V36.9878Z" fill="#C167A7"/>
<path d="M10.7514 38.6406H9.09863V40.5H10.7514V38.6406Z" fill="#C167A7"/>
<path d="M12.6103 38.6406H10.751V40.5H12.6103V38.6406Z" fill="#C167A7"/>
<path d="M14.4697 38.6406H12.6104V40.5H14.4697V38.6406Z" fill="#C167A7"/>
<path d="M16.1225 38.6406H14.4697V40.5H16.1225V38.6406Z" fill="#C167A7"/>
<path d="M17.9814 38.6406H16.1221V40.5H17.9814V38.6406Z" fill="#C167A7"/>
<path d="M19.8408 38.6406H17.9814V40.5H19.8408V38.6406Z" fill="#C167A7"/>
<path d="M21.4936 38.6406H19.8408V40.5H21.4936V38.6406Z" fill="#C167A7"/>
<path d="M23.3545 38.6406H21.4951V40.5H23.3545V38.6406Z" fill="#C167A7"/>
<path d="M25.2119 38.6406H23.3525V40.5H25.2119V38.6406Z" fill="#C167A7"/>
<path d="M26.8647 38.6406H25.2119V40.5H26.8647V38.6406Z" fill="#C167A7"/>
<path d="M28.7255 38.6406H26.8662V40.5H28.7255V38.6406Z" fill="#C167A7"/>
<path d="M30.5849 38.6406H28.7256V40.5H30.5849V38.6406Z" fill="#C167A7"/>
</g>
<rect x="1.26699" y="1.1" width="38.8" height="38.8" rx="19.4" stroke="black" stroke-width="1.2"/>
<defs>
<clipPath id="clip0_6_45657">
<rect x="0.666992" y="0.5" width="40" height="40" rx="20" fill="white"/>
</clipPath>
</defs>
</svg>
