<svg width="40" height="40" viewBox="0 0 40 40" fill="none" xmlns="http://www.w3.org/2000/svg">
<rect x="0.6" y="0.6" width="38.8" height="38.8" rx="19.4" fill="#FFC4E7"/>
<rect x="0.6" y="0.6" width="38.8" height="38.8" rx="19.4" stroke="black" stroke-width="1.2"/>
<path d="M16.7752 7.19141H15.0684V8.70857H16.7752V7.19141Z" fill="#E6692A"/>
<path d="M18.4822 7.19141H16.7754V8.70857H18.4822V7.19141Z" fill="#E6692A"/>
<path d="M19.9996 7.19141H18.4824V8.70857H19.9996V7.19141Z" fill="#E6692A"/>
<path d="M21.7068 7.19092H20V8.70808H21.7068V7.19092Z" fill="#E6692A"/>
<path d="M23.4138 7.19092H21.707V8.70808H23.4138V7.19092Z" fill="#E6692A"/>
<path d="M24.9293 7.19141H23.4121V8.70857H24.9293V7.19141Z" fill="#E6692A"/>
<path d="M15.0679 8.70801H13.5508V10.4148H15.0679V8.70801Z" fill="#E6692A"/>
<path d="M16.7752 8.70801H15.0684V10.4148H16.7752V8.70801Z" fill="#E6692A"/>
<path d="M18.4822 8.70801H16.7754V10.4148H18.4822V8.70801Z" fill="#E6692A"/>
<path d="M19.9996 8.70801H18.4824V10.4148H19.9996V8.70801Z" fill="#E6692A"/>
<path d="M21.7068 8.70801H20V10.4148H21.7068V8.70801Z" fill="#E6692A"/>
<path d="M23.4138 8.70801H21.707V10.4148H23.4138V8.70801Z" fill="#E6692A"/>
<path d="M24.9293 8.70801H23.4121V10.4148H24.9293V8.70801Z" fill="#E6692A"/>
<path d="M26.6365 8.70801H24.9297V10.4148H26.6365V8.70801Z" fill="#E6692A"/>
<path d="M13.5506 10.415H11.8438V12.1218H13.5506V10.415Z" fill="#E6692A"/>
<path d="M15.0679 10.415H13.5508V12.1218H15.0679V10.415Z" fill="#E6692A"/>
<path d="M16.7752 10.415H15.0684V12.1218H16.7752V10.415Z" fill="#E6692A"/>
<path d="M18.4822 10.415H16.7754V12.1218H18.4822V10.415Z" fill="#E6692A"/>
<path d="M19.9996 10.415H18.4824V12.1218H19.9996V10.415Z" fill="#E6692A"/>
<path d="M21.7068 10.415H20V12.1218H21.7068V10.415Z" fill="#E6692A"/>
<path d="M23.4138 10.415H21.707V12.1218H23.4138V10.415Z" fill="#E6692A"/>
<path d="M24.9293 10.415H23.4121V12.1218H24.9293V10.415Z" fill="#E6692A"/>
<path d="M26.6365 10.415H24.9297V12.1218H26.6365V10.415Z" fill="#E6692A"/>
<path d="M28.3435 10.415H26.6367V12.1218H28.3435V10.415Z" fill="#E6692A"/>
<path d="M11.8455 12.1221H10.1387V13.6392H11.8455V12.1221Z" fill="#E6692A"/>
<path d="M13.5506 12.1221H11.8438V13.6392H13.5506V12.1221Z" fill="#E6692A"/>
<path d="M15.0679 12.1221H13.5508V13.6392H15.0679V12.1221Z" fill="#E6692A"/>
<path d="M16.7752 12.1221H15.0684V13.6392H16.7752V12.1221Z" fill="#E6692A"/>
<path d="M18.4822 12.1221H16.7754V13.6392H18.4822V12.1221Z" fill="#E6692A"/>
<path d="M19.9996 12.1221H18.4824V13.6392H19.9996V12.1221Z" fill="#E6692A"/>
<path d="M21.7068 12.1221H20V13.6392H21.7068V12.1221Z" fill="#E6692A"/>
<path d="M23.4138 12.1221H21.707V13.6392H23.4138V12.1221Z" fill="#E6692A"/>
<path d="M24.9293 12.1221H23.4121V13.6392H24.9293V12.1221Z" fill="#E6692A"/>
<path d="M26.6365 12.1221H24.9297V13.6392H26.6365V12.1221Z" fill="#E6692A"/>
<path d="M28.3435 12.1221H26.6367V13.6392H28.3435V12.1221Z" fill="#E6692A"/>
<path d="M29.8609 12.1221H28.3438V13.6392H29.8609V12.1221Z" fill="#E6692A"/>
<path d="M10.1383 13.6392H8.62109V15.346H10.1383V13.6392Z" fill="#E6692A"/>
<path d="M11.8455 13.6387H10.1387V15.3455H11.8455V13.6387Z" fill="#E6692A"/>
<path d="M13.5506 13.6392H11.8438V15.346H13.5506V13.6392Z" fill="#E6692A"/>
<path d="M15.0679 13.6392H13.5508V15.346H15.0679V13.6392Z" fill="#F4D9BF"/>
<path d="M16.7752 13.6387H15.0684V15.3455H16.7752V13.6387Z" fill="#F4D9BF"/>
<path d="M18.4822 13.6387H16.7754V15.3455H18.4822V13.6387Z" fill="#F4D9BF"/>
<path d="M19.9996 13.6387H18.4824V15.3455H19.9996V13.6387Z" fill="#F4D9BF"/>
<path d="M21.7068 13.6392H20V15.346H21.7068V13.6392Z" fill="#F4D9BF"/>
<path d="M23.4138 13.6392H21.707V15.346H23.4138V13.6392Z" fill="#F4D9BF"/>
<path d="M24.9293 13.6387H23.4121V15.3455H24.9293V13.6387Z" fill="#F4D9BF"/>
<path d="M26.6365 13.6392H24.9297V15.346H26.6365V13.6392Z" fill="#E6692A"/>
<path d="M28.3435 13.6392H26.6367V15.346H28.3435V13.6392Z" fill="#E6692A"/>
<path d="M29.8609 13.6392H28.3438V15.346H29.8609V13.6392Z" fill="#E6692A"/>
<path d="M31.5681 13.6387H29.8613V15.3455H31.5681V13.6387Z" fill="#E6692A"/>
<path d="M8.62087 15.3457H6.91406V17.0525H8.62087V15.3457Z" fill="#E6692A"/>
<path d="M10.1383 15.3457H8.62109V17.0525H10.1383V15.3457Z" fill="#E6692A"/>
<path d="M11.8455 15.3457H10.1387V17.0525H11.8455V15.3457Z" fill="#E6692A"/>
<path d="M13.5506 15.3457H11.8438V17.0525H13.5506V15.3457Z" fill="#F4D9BF"/>
<path d="M15.0679 15.3457H13.5508V17.0525H15.0679V15.3457Z" fill="#F4D9BF"/>
<path d="M16.7752 15.3457H15.0684V17.0525H16.7752V15.3457Z" fill="#F4D9BF"/>
<path d="M18.4822 15.3457H16.7754V17.0525H18.4822V15.3457Z" fill="#F4D9BF"/>
<path d="M19.9996 15.3457H18.4824V17.0525H19.9996V15.3457Z" fill="#F4D9BF"/>
<path d="M21.7068 15.3457H20V17.0525H21.7068V15.3457Z" fill="#F4D9BF"/>
<path d="M23.4138 15.3457H21.707V17.0525H23.4138V15.3457Z" fill="#F4D9BF"/>
<path d="M24.9293 15.3457H23.4121V17.0525H24.9293V15.3457Z" fill="#F4D9BF"/>
<path d="M26.6365 15.3457H24.9297V17.0525H26.6365V15.3457Z" fill="#F4D9BF"/>
<path d="M28.3435 15.3457H26.6367V17.0525H28.3435V15.3457Z" fill="#E6692A"/>
<path d="M29.8609 15.3457H28.3438V17.0525H29.8609V15.3457Z" fill="#E6692A"/>
<path d="M31.5681 15.3457H29.8613V17.0525H31.5681V15.3457Z" fill="#E6692A"/>
<path d="M33.0855 15.3457H31.5684V17.0525H33.0855V15.3457Z" fill="#E6692A"/>
<path d="M8.62087 17.0527H6.91406V18.5699H8.62087V17.0527Z" fill="#E6692A"/>
<path d="M10.1383 17.0527H8.62109V18.5699H10.1383V17.0527Z" fill="#E6692A"/>
<path d="M11.8455 17.0527H10.1387V18.5699H11.8455V17.0527Z" fill="#E6692A"/>
<path d="M13.5506 17.0527H11.8438V18.5699H13.5506V17.0527Z" fill="#F4D9BF"/>
<path d="M15.0679 17.0527H13.5508V18.5699H15.0679V17.0527Z" fill="black"/>
<path d="M16.7752 17.0527H15.0684V18.5699H16.7752V17.0527Z" fill="#F4D9BF"/>
<path d="M18.4822 17.0527H16.7754V18.5699H18.4822V17.0527Z" fill="#F4D9BF"/>
<path d="M19.9996 17.0527H18.4824V18.5699H19.9996V17.0527Z" fill="#F4D9BF"/>
<path d="M21.7068 17.0527H20V18.5699H21.7068V17.0527Z" fill="#F4D9BF"/>
<path d="M23.4138 17.0527H21.707V18.5699H23.4138V17.0527Z" fill="#F4D9BF"/>
<path d="M24.9293 17.0527H23.4121V18.5699H24.9293V17.0527Z" fill="black"/>
<path d="M26.6365 17.0527H24.9297V18.5699H26.6365V17.0527Z" fill="#F4D9BF"/>
<path d="M28.3435 17.0527H26.6367V18.5699H28.3435V17.0527Z" fill="#E6692A"/>
<path d="M29.8609 17.0527H28.3438V18.5699H29.8609V17.0527Z" fill="#E6692A"/>
<path d="M31.5681 17.0527H29.8613V18.5699H31.5681V17.0527Z" fill="#E6692A"/>
<path d="M33.0855 17.0527H31.5684V18.5699H33.0855V17.0527Z" fill="#E6692A"/>
<path d="M8.62087 18.5693H6.91406V20.2761H8.62087V18.5693Z" fill="#E6692A"/>
<path d="M10.1383 18.5698H8.62109V20.2766H10.1383V18.5698Z" fill="#E6692A"/>
<path d="M11.8455 18.5693H10.1387V20.2761H11.8455V18.5693Z" fill="#F4D9BF"/>
<path d="M13.5506 18.5698H11.8438V20.2766H13.5506V18.5698Z" fill="#F4D9BF"/>
<path d="M15.0679 18.5693H13.5508V20.2761H15.0679V18.5693Z" fill="#F4D9BF"/>
<path d="M16.7752 18.5693H15.0684V20.2761H16.7752V18.5693Z" fill="#F4D9BF"/>
<path d="M18.4822 18.5703H16.7754V20.2771H18.4822V18.5703Z" fill="#F4D9BF"/>
<path d="M19.9996 18.5693H18.4824V20.2761H19.9996V18.5693Z" fill="#F4D9BF"/>
<path d="M21.7068 18.5698H20V20.2766H21.7068V18.5698Z" fill="#F4D9BF"/>
<path d="M23.4138 18.5693H21.707V20.2761H23.4138V18.5693Z" fill="#F4D9BF"/>
<path d="M24.9293 18.5703H23.4121V20.2771H24.9293V18.5703Z" fill="#F4D9BF"/>
<path d="M26.6365 18.5698H24.9297V20.2766H26.6365V18.5698Z" fill="#F4D9BF"/>
<path d="M28.3435 18.5693H26.6367V20.2761H28.3435V18.5693Z" fill="#F4D9BF"/>
<path d="M29.8609 18.5698H28.3438V20.2766H29.8609V18.5698Z" fill="#E6692A"/>
<path d="M31.5681 18.5693H29.8613V20.2761H31.5681V18.5693Z" fill="#E6692A"/>
<path d="M33.0855 18.5703H31.5684V20.2771H33.0855V18.5703Z" fill="#E6692A"/>
<path d="M8.62087 20.2764H6.91406V21.9832H8.62087V20.2764Z" fill="#E6692A"/>
<path d="M10.1383 20.2764H8.62109V21.9832H10.1383V20.2764Z" fill="#E6692A"/>
<path d="M11.8455 20.2764H10.1387V21.9832H11.8455V20.2764Z" fill="#F4D9BF"/>
<path d="M13.5506 20.2764H11.8438V21.9832H13.5506V20.2764Z" fill="#F4D9BF"/>
<path d="M15.0679 20.2764H13.5508V21.9832H15.0679V20.2764Z" fill="#F4D9BF"/>
<path d="M16.7752 20.2764H15.0684V21.9832H16.7752V20.2764Z" fill="#F4D9BF"/>
<path d="M18.4822 20.2764H16.7754V21.9832H18.4822V20.2764Z" fill="#F4D9BF"/>
<path d="M19.9996 20.2764H18.4824V21.9832H19.9996V20.2764Z" fill="#F4D9BF"/>
<path d="M21.7068 20.2764H20V21.9832H21.7068V20.2764Z" fill="#F4D9BF"/>
<path d="M23.4138 20.2764H21.707V21.9832H23.4138V20.2764Z" fill="#F4D9BF"/>
<path d="M24.9293 20.2764H23.4121V21.9832H24.9293V20.2764Z" fill="#F4D9BF"/>
<path d="M26.6365 20.2764H24.9297V21.9832H26.6365V20.2764Z" fill="#F4D9BF"/>
<path d="M28.3435 20.2764H26.6367V21.9832H28.3435V20.2764Z" fill="#F4D9BF"/>
<path d="M29.8609 20.2764H28.3438V21.9832H29.8609V20.2764Z" fill="#E6692A"/>
<path d="M31.5681 20.2764H29.8613V21.9832H31.5681V20.2764Z" fill="#E6692A"/>
<path d="M33.0855 20.2764H31.5684V21.9832H33.0855V20.2764Z" fill="#E6692A"/>
<path d="M8.62087 21.9834H6.91406V23.5006H8.62087V21.9834Z" fill="#E6692A"/>
<path d="M10.1383 21.9834H8.62109V23.5006H10.1383V21.9834Z" fill="#E6692A"/>
<path d="M11.8455 21.9834H10.1387V23.5006H11.8455V21.9834Z" fill="#F2F2F2"/>
<path d="M13.5506 21.9834H11.8438V23.5006H13.5506V21.9834Z" fill="#F4D9BF"/>
<path d="M15.0679 21.9834H13.5508V23.5006H15.0679V21.9834Z" fill="#F4D9BF"/>
<path d="M16.7752 21.9834H15.0684V23.5006H16.7752V21.9834Z" fill="#F4D9BF"/>
<path d="M18.4822 21.9834H16.7754V23.5006H18.4822V21.9834Z" fill="#F4D9BF"/>
<path d="M19.9996 21.9834H18.4824V23.5006H19.9996V21.9834Z" fill="#F4D9BF"/>
<path d="M21.7068 21.9834H20V23.5006H21.7068V21.9834Z" fill="#F4D9BF"/>
<path d="M23.4138 21.9834H21.707V23.5006H23.4138V21.9834Z" fill="#F4D9BF"/>
<path d="M24.9293 21.9834H23.4121V23.5006H24.9293V21.9834Z" fill="#F4D9BF"/>
<path d="M26.6365 21.9834H24.9297V23.5006H26.6365V21.9834Z" fill="#F4D9BF"/>
<path d="M28.3435 21.9834H26.6367V23.5006H28.3435V21.9834Z" fill="#F2F2F2"/>
<path d="M29.8609 21.9834H28.3438V23.5006H29.8609V21.9834Z" fill="#E6692A"/>
<path d="M31.5681 21.9834H29.8613V23.5006H31.5681V21.9834Z" fill="#E6692A"/>
<path d="M33.0855 21.9834H31.5684V23.5006H33.0855V21.9834Z" fill="#E6692A"/>
<path d="M8.62087 23.5005H6.91406V25.2073H8.62087V23.5005Z" fill="#E6692A"/>
<path d="M10.1383 23.5005H8.62109V25.2073H10.1383V23.5005Z" fill="#E6692A"/>
<path d="M11.8455 23.5H10.1387V25.2068H11.8455V23.5Z" fill="#E6692A"/>
<path d="M13.5506 23.5005H11.8438V25.2073H13.5506V23.5005Z" fill="#F4D9BF"/>
<path d="M15.0679 23.5005H13.5508V25.2073H15.0679V23.5005Z" fill="#F4D9BF"/>
<path d="M16.7752 23.5H15.0684V25.2068H16.7752V23.5Z" fill="#CA7C60"/>
<path d="M18.4822 23.5H16.7754V25.2068H18.4822V23.5Z" fill="#F4D9BF"/>
<path d="M19.9996 23.5H18.4824V25.2068H19.9996V23.5Z" fill="#F4D9BF"/>
<path d="M21.7068 23.5005H20V25.2073H21.7068V23.5005Z" fill="#F4D9BF"/>
<path d="M23.4138 23.5005H21.707V25.2073H23.4138V23.5005Z" fill="#CA7C60"/>
<path d="M24.9293 23.5H23.4121V25.2068H24.9293V23.5Z" fill="#F4D9BF"/>
<path d="M26.6365 23.5005H24.9297V25.2073H26.6365V23.5005Z" fill="#F4D9BF"/>
<path d="M28.3435 23.5005H26.6367V25.2073H28.3435V23.5005Z" fill="#E6692A"/>
<path d="M29.8609 23.5005H28.3438V25.2073H29.8609V23.5005Z" fill="#E6692A"/>
<path d="M31.5681 23.5H29.8613V25.2068H31.5681V23.5Z" fill="#E6692A"/>
<path d="M33.0855 23.5H31.5684V25.2068H33.0855V23.5Z" fill="#E6692A"/>
<path d="M8.62087 25.2075H6.91406V26.9143H8.62087V25.2075Z" fill="#E6692A"/>
<path d="M10.1383 25.2075H8.62109V26.9143H10.1383V25.2075Z" fill="#E6692A"/>
<path d="M11.8455 25.207H10.1387V26.9138H11.8455V25.207Z" fill="#E6692A"/>
<path d="M13.5506 25.2075H11.8438V26.9143H13.5506V25.2075Z" fill="#F4D9BF"/>
<path d="M15.0679 25.2075H13.5508V26.9143H15.0679V25.2075Z" fill="#F4D9BF"/>
<path d="M16.7752 25.207H15.0684V26.9138H16.7752V25.207Z" fill="#F4D9BF"/>
<path d="M18.4822 25.207H16.7754V26.9138H18.4822V25.207Z" fill="#CA7C60"/>
<path d="M19.9996 25.207H18.4824V26.9138H19.9996V25.207Z" fill="#CA7C60"/>
<path d="M21.7068 25.2075H20V26.9143H21.7068V25.2075Z" fill="#CA7C60"/>
<path d="M23.4138 25.2075H21.707V26.9143H23.4138V25.2075Z" fill="#F4D9BF"/>
<path d="M24.9293 25.207H23.4121V26.9138H24.9293V25.207Z" fill="#F4D9BF"/>
<path d="M26.6365 25.2075H24.9297V26.9143H26.6365V25.2075Z" fill="#F4D9BF"/>
<path d="M28.3435 25.2075H26.6367V26.9143H28.3435V25.2075Z" fill="#E6692A"/>
<path d="M29.8609 25.2075H28.3438V26.9143H29.8609V25.2075Z" fill="#E6692A"/>
<path d="M31.5681 25.207H29.8613V26.9138H31.5681V25.207Z" fill="#E6692A"/>
<path d="M33.0855 25.207H31.5684V26.9138H33.0855V25.207Z" fill="#E6692A"/>
<path d="M8.62087 26.9141H6.91406V28.4312H8.62087V26.9141Z" fill="#E6692A"/>
<path d="M10.1383 26.9141H8.62109V28.4312H10.1383V26.9141Z" fill="#E6692A"/>
<path d="M11.8455 26.9141H10.1387V28.4312H11.8455V26.9141Z" fill="#E6692A"/>
<path d="M13.5506 26.9141H11.8438V28.4312H13.5506V26.9141Z" fill="#E6692A"/>
<path d="M15.0679 26.9141H13.5508V28.4312H15.0679V26.9141Z" fill="#F4D9BF"/>
<path d="M16.7752 26.9141H15.0684V28.4312H16.7752V26.9141Z" fill="#F4D9BF"/>
<path d="M18.4822 26.9141H16.7754V28.4312H18.4822V26.9141Z" fill="#F4D9BF"/>
<path d="M19.9996 26.9141H18.4824V28.4312H19.9996V26.9141Z" fill="#F4D9BF"/>
<path d="M21.7068 26.9141H20V28.4312H21.7068V26.9141Z" fill="#F4D9BF"/>
<path d="M23.4138 26.9141H21.707V28.4312H23.4138V26.9141Z" fill="#F4D9BF"/>
<path d="M24.9293 26.9141H23.4121V28.4312H24.9293V26.9141Z" fill="#F4D9BF"/>
<path d="M26.6365 26.9141H24.9297V28.4312H26.6365V26.9141Z" fill="#E6692A"/>
<path d="M28.3435 26.9141H26.6367V28.4312H28.3435V26.9141Z" fill="#E6692A"/>
<path d="M29.8609 26.9141H28.3438V28.4312H29.8609V26.9141Z" fill="#E6692A"/>
<path d="M31.5681 26.9141H29.8613V28.4312H31.5681V26.9141Z" fill="#E6692A"/>
<path d="M33.0855 26.9141H31.5684V28.4312H33.0855V26.9141Z" fill="#E6692A"/>
<path d="M8.62087 28.4312H6.91406V30.138H8.62087V28.4312Z" fill="#E6692A"/>
<path d="M10.1383 28.4312H8.62109V30.138H10.1383V28.4312Z" fill="#E6692A"/>
<path d="M11.8455 28.4316H10.1387V30.1384H11.8455V28.4316Z" fill="#E6692A"/>
<path d="M13.5506 28.4312H11.8438V30.138H13.5506V28.4312Z" fill="#E6692A"/>
<path d="M15.0679 28.4312H13.5508V30.138H15.0679V28.4312Z" fill="#E6692A"/>
<path d="M16.7752 28.4316H15.0684V30.1384H16.7752V28.4316Z" fill="#F4D9BF"/>
<path d="M18.4822 28.4316H16.7754V30.1384H18.4822V28.4316Z" fill="#F4D9BF"/>
<path d="M19.9996 28.4316H18.4824V30.1384H19.9996V28.4316Z" fill="#F4D9BF"/>
<path d="M21.7068 28.4312H20V30.138H21.7068V28.4312Z" fill="#F4D9BF"/>
<path d="M23.4138 28.4312H21.707V30.138H23.4138V28.4312Z" fill="#F4D9BF"/>
<path d="M24.9293 28.4316H23.4121V30.1384H24.9293V28.4316Z" fill="#E6692A"/>
<path d="M26.6365 28.4312H24.9297V30.138H26.6365V28.4312Z" fill="#E6692A"/>
<path d="M28.3435 28.4312H26.6367V30.138H28.3435V28.4312Z" fill="#E6692A"/>
<path d="M29.8609 28.4312H28.3438V30.138H29.8609V28.4312Z" fill="#E6692A"/>
<path d="M31.5681 28.4316H29.8613V30.1384H31.5681V28.4316Z" fill="#E6692A"/>
<path d="M33.0855 28.4316H31.5684V30.1384H33.0855V28.4316Z" fill="#E6692A"/>
<path d="M8.62087 30.1382H6.91406V31.845H8.62087V30.1382Z" fill="#E6692A"/>
<path d="M10.1383 30.1377H8.62109V31.8445H10.1383V30.1377Z" fill="#E6692A"/>
<path d="M11.8455 30.1387H10.1387V31.8455H11.8455V30.1387Z" fill="#E6692A"/>
<path d="M13.5506 30.1377H11.8438V31.8445H13.5506V30.1377Z" fill="#E6692A"/>
<path d="M15.0679 30.1382H13.5508V31.845H15.0679V30.1382Z" fill="#E6692A"/>
<path d="M16.7752 30.1387H15.0684V31.8455H16.7752V30.1387Z" fill="#E6692A"/>
<path d="M18.4822 30.1377H16.7754V31.8445H18.4822V30.1377Z" fill="#F4D9BF"/>
<path d="M19.9996 30.1387H18.4824V31.8455H19.9996V30.1387Z" fill="#F4D9BF"/>
<path d="M21.7068 30.1377H20V31.8445H21.7068V30.1377Z" fill="#F4D9BF"/>
<path d="M23.4138 30.1382H21.707V31.845H23.4138V30.1382Z" fill="#E6692A"/>
<path d="M24.9293 30.1377H23.4121V31.8445H24.9293V30.1377Z" fill="#E6692A"/>
<path d="M26.6365 30.1377H24.9297V31.8445H26.6365V30.1377Z" fill="#E6692A"/>
<path d="M28.3435 30.1382H26.6367V31.845H28.3435V30.1382Z" fill="#E6692A"/>
<path d="M29.8609 30.1377H28.3438V31.8445H29.8609V30.1377Z" fill="#E6692A"/>
<path d="M8.62087 31.8447H6.91406V33.3619H8.62087V31.8447Z" fill="#E6692A"/>
<path d="M10.1383 31.8447H8.62109V33.3619H10.1383V31.8447Z" fill="#E6692A"/>
<path d="M11.8455 31.8447H10.1387V33.3619H11.8455V31.8447Z" fill="#E6692A"/>
<path d="M13.5506 31.8447H11.8438V33.3619H13.5506V31.8447Z" fill="#E6692A"/>
<path d="M15.0679 31.8447H13.5508V33.3619H15.0679V31.8447Z" fill="#E6692A"/>
<path d="M16.7752 31.8447H15.0684V33.3619H16.7752V31.8447Z" fill="#E6692A"/>
<path d="M18.4822 31.8447H16.7754V33.3619H18.4822V31.8447Z" fill="#F4D9BF"/>
<path d="M19.9996 31.8447H18.4824V33.3619H19.9996V31.8447Z" fill="#F4D9BF"/>
<path d="M21.7068 31.8447H20V33.3619H21.7068V31.8447Z" fill="#F4D9BF"/>
<path d="M23.4138 31.8447H21.707V33.3619H23.4138V31.8447Z" fill="#E6692A"/>
<path d="M24.9293 31.8447H23.4121V33.3619H24.9293V31.8447Z" fill="#E6692A"/>
<path d="M26.6365 31.8447H24.9297V33.3619H26.6365V31.8447Z" fill="#E6692A"/>
<path d="M28.3435 31.8447H26.6367V33.3619H28.3435V31.8447Z" fill="#E6692A"/>
<path d="M29.8609 31.8447H28.3438V33.3619H29.8609V31.8447Z" fill="#E6692A"/>
<path d="M10.1383 33.3623H8.62109V35.0691H10.1383V33.3623Z" fill="#E6692A"/>
<path d="M11.8455 33.3623H10.1387V35.0691H11.8455V33.3623Z" fill="#E6692A"/>
<path d="M13.5506 33.3623H11.8438V35.0691H13.5506V33.3623Z" fill="#E6692A"/>
<path d="M15.0679 33.3623H13.5508V35.0691H15.0679V33.3623Z" fill="#33B2E9"/>
<path d="M16.7752 33.3623H15.0684V35.0691H16.7752V33.3623Z" fill="#33B2E9"/>
<path d="M18.4822 33.3623H16.7754V35.0691H18.4822V33.3623Z" fill="#F4D9BF"/>
<path d="M19.9996 33.3623H18.4824V35.0691H19.9996V33.3623Z" fill="#F4D9BF"/>
<path d="M21.7068 33.3623H20V35.0691H21.7068V33.3623Z" fill="#F4D9BF"/>
<path d="M23.4138 33.3623H21.707V35.0691H23.4138V33.3623Z" fill="#33B2E9"/>
<path d="M24.9293 33.3623H23.4121V35.0691H24.9293V33.3623Z" fill="#33B2E9"/>
<path d="M26.6365 33.3623H24.9297V35.0691H26.6365V33.3623Z" fill="#E6692A"/>
<path d="M28.3435 33.3623H26.6367V35.0691H28.3435V33.3623Z" fill="#E6692A"/>
<path d="M29.8609 33.3623H28.3438V35.0691H29.8609V33.3623Z" fill="#E6692A"/>
<path d="M11.8455 35.0684H10.1387V36.7752H11.8455V35.0684Z" fill="#E6692A"/>
<path d="M13.5506 35.0688H11.8438V36.7757H13.5506V35.0688Z" fill="#33B2E9"/>
<path d="M15.0679 35.0688H13.5508V36.7757H15.0679V35.0688Z" fill="#33B2E9"/>
<path d="M16.7752 35.0684H15.0684V36.7752H16.7752V35.0684Z" fill="#33B2E9"/>
<path d="M18.4822 35.0684H16.7754V36.7752H18.4822V35.0684Z" fill="#33B2E9"/>
<path d="M19.9996 35.0684H18.4824V36.7752H19.9996V35.0684Z" fill="#33B2E9"/>
<path d="M21.7068 35.0688H20V36.7757H21.7068V35.0688Z" fill="#33B2E9"/>
<path d="M23.4138 35.0688H21.707V36.7757H23.4138V35.0688Z" fill="#33B2E9"/>
<path d="M24.9293 35.0684H23.4121V36.7752H24.9293V35.0684Z" fill="#33B2E9"/>
<path d="M26.6365 35.0688H24.9297V36.7757H26.6365V35.0688Z" fill="#E6692A"/>
<path d="M28.3435 35.0688H26.6367V36.7757H28.3435V35.0688Z" fill="#E6692A"/>
<path d="M11.8455 36.7754H10.1387V38.2925H11.8455V36.7754Z" fill="#33B2E9"/>
<path d="M13.5506 36.7759H11.8438V38.293H13.5506V36.7759Z" fill="#33B2E9"/>
<path d="M15.0679 36.7759H13.5508V38.293H15.0679V36.7759Z" fill="#33B2E9"/>
<path d="M16.7752 36.7754H15.0684V38.2925H16.7752V36.7754Z" fill="#33B2E9"/>
<path d="M18.4822 36.7754H16.7754V38.2925H18.4822V36.7754Z" fill="#33B2E9"/>
<path d="M19.9996 36.7754H18.4824V38.2925H19.9996V36.7754Z" fill="#33B2E9"/>
<path d="M21.7068 36.7759H20V38.293H21.7068V36.7759Z" fill="#33B2E9"/>
<path d="M23.4138 36.7759H21.707V38.293H23.4138V36.7759Z" fill="#33B2E9"/>
<path d="M24.9293 36.7754H23.4121V38.2925H24.9293V36.7754Z" fill="#33B2E9"/>
<path d="M26.6365 36.7759H24.9297V38.293H26.6365V36.7759Z" fill="#33B2E9"/>
<path d="M28.3435 36.7759H26.6367V38.293H28.3435V36.7759Z" fill="#E6692A"/>
<path d="M10.1383 38.2925H8.62109V39.9993H10.1383V38.2925Z" fill="#33B2E9"/>
<path d="M11.8455 38.293H10.1387V39.9998H11.8455V38.293Z" fill="#33B2E9"/>
<path d="M13.5506 38.2925H11.8438V39.9993H13.5506V38.2925Z" fill="#33B2E9"/>
<path d="M15.0679 38.2925H13.5508V39.9993H15.0679V38.2925Z" fill="#33B2E9"/>
<path d="M16.7752 38.293H15.0684V39.9998H16.7752V38.293Z" fill="#33B2E9"/>
<path d="M18.4822 38.293H16.7754V39.9998H18.4822V38.293Z" fill="#33B2E9"/>
<path d="M19.9996 38.293H18.4824V39.9998H19.9996V38.293Z" fill="#33B2E9"/>
<path d="M21.7068 38.2925H20V39.9993H21.7068V38.2925Z" fill="#33B2E9"/>
<path d="M23.4138 38.2925H21.707V39.9993H23.4138V38.2925Z" fill="#33B2E9"/>
<path d="M24.9293 38.293H23.4121V39.9998H24.9293V38.293Z" fill="#33B2E9"/>
<path d="M26.6365 38.2925H24.9297V39.9993H26.6365V38.2925Z" fill="#33B2E9"/>
<path d="M28.3435 38.2925H26.6367V39.9993H28.3435V38.2925Z" fill="#33B2E9"/>
</svg>
